<svg width="208" height="175" viewBox="0 0 208 175" fill="none" xmlns="http://www.w3.org/2000/svg">
<path fill-rule="evenodd" clip-rule="evenodd" d="M29.0296 1.57507H49.6933V95.8533H29.0296V57.1088H21.2809V95.8533H0.617188V1.57508H21.2809V36.4451H29.0296V1.57507Z" fill="white"/>
<path fill-rule="evenodd" clip-rule="evenodd" d="M151.72 1.57507H136.223L115.559 1.57508V95.8533L136.223 95.8533L136.223 95.8533L151.72 95.8533V75.1896H136.223V58.4003H151.72V37.7366H136.223V22.2388H151.72V1.57507Z" fill="white"/>
<path fill-rule="evenodd" clip-rule="evenodd" d="M156.886 103.233H142.126V170.575H156.886V103.233ZM167.956 103.233H156.886V117.993H167.956V103.233ZM156.886 129.063H167.956V143.823H156.886V129.063ZM167.956 155.815H156.886V170.575H167.956V155.815Z" fill="white"/>
<path fill-rule="evenodd" clip-rule="evenodd" d="M87.1465 1.57507H107.81L107.81 75.1896L107.81 76.4811H107.776C107.63 79.2621 107.011 82.0012 105.942 84.5799C104.709 87.5571 102.902 90.2621 100.623 92.5407C98.3446 94.8193 95.6395 96.6267 92.6624 97.8599C89.6853 99.0931 86.4945 99.7278 83.2721 99.7278C80.0497 99.7278 76.8588 99.0931 73.8817 97.8599C70.9046 96.6267 68.1995 94.8193 65.9209 92.5407C63.6424 90.2621 61.8349 87.5571 60.6017 84.5799C59.5336 82.0012 58.9145 79.2621 58.7679 76.4811H58.7341V75.2849C58.7339 75.2531 58.7339 75.2214 58.7339 75.1896H58.7341V1.57508H79.3978V75.1896V75.2348C79.4027 75.9147 79.5024 80.0884 79.6922 80.5467C79.887 81.0168 80.1723 81.4439 80.5321 81.8037C80.8919 82.1635 81.319 82.4489 81.7891 82.6436C82.2592 82.8383 82.763 82.9385 83.2718 82.9385C83.7806 82.9385 84.2844 82.8383 84.7545 82.6436C85.2245 82.4489 85.6516 82.1635 86.0114 81.8037C86.3712 81.4439 86.6566 81.0168 86.8513 80.5467C87.046 80.0767 87.1462 75.6984 87.1462 75.1896H87.1465V1.57507Z" fill="white"/>
<path fill-rule="evenodd" clip-rule="evenodd" d="M101.537 103.233H116.296V155.815H116.297C116.297 156.179 116.368 159.306 116.507 159.642C116.646 159.977 116.85 160.282 117.107 160.539C117.364 160.796 117.669 161 118.005 161.139C118.341 161.278 118.701 161.35 119.064 161.35C119.427 161.35 119.787 161.278 120.123 161.139C120.459 161 120.764 160.796 121.021 160.539C121.278 160.282 121.482 159.977 121.621 159.642C121.76 159.306 121.831 156.179 121.831 155.815H121.832V103.233H136.592V158.583H136.371C136.156 159.932 135.782 161.254 135.257 162.522C134.376 164.649 133.085 166.581 131.458 168.209C129.83 169.836 127.898 171.127 125.771 172.008C123.645 172.889 121.366 173.342 119.064 173.342C116.762 173.342 114.483 172.889 112.357 172.008C110.23 171.127 108.298 169.836 106.67 168.209C105.043 166.581 103.752 164.649 102.871 162.522C102.346 161.254 101.972 159.932 101.757 158.583H101.537V103.233Z" fill="white"/>
<path fill-rule="evenodd" clip-rule="evenodd" d="M74.2409 119.838V119.838L77.465 119.838H80.6798V119.624C80.5817 118.818 80.1305 116.31 80.0074 116.011C79.8691 115.676 79.6664 115.371 79.4109 115.114C79.1553 114.857 78.8519 114.653 78.518 114.514C78.1841 114.375 77.8262 114.303 77.4648 114.303C77.1034 114.303 76.7456 114.375 76.4117 114.514C76.0778 114.653 75.7744 114.857 75.5188 115.114C75.2633 115.371 75.0605 115.676 74.9222 116.011C74.7839 116.347 74.2409 119.474 74.2409 119.838H74.2224V156.553H60.0161V119.1H60.0505C60.1364 117.05 60.5796 115.03 61.3618 113.131C62.2377 111.004 63.5216 109.072 65.1402 107.444C66.7587 105.817 68.6801 104.526 70.7948 103.645C72.9095 102.764 75.1761 102.311 77.465 102.311C79.7539 102.311 82.0205 102.764 84.1352 103.645C86.2499 104.526 88.1713 105.817 89.7899 107.444C91.4084 109.072 92.6923 111.004 93.5682 113.131C94.3504 115.03 94.7936 117.05 94.8795 119.1H94.8861V119.28C94.892 119.466 94.895 119.652 94.895 119.838H94.8861V130.723H80.6798V119.838H77.4648H74.2409ZM80.6798 156.553H77.4563L74.2224 156.553L60.0262 156.553C60.0262 158.855 60.477 161.134 61.353 163.26C62.2289 165.387 63.5128 167.319 65.1313 168.947C66.7498 170.574 68.6713 171.865 70.786 172.746C72.9007 173.627 75.1672 174.08 77.4562 174.08C79.7451 174.08 82.0116 173.627 84.1263 172.746C86.241 171.865 88.1625 170.574 89.781 168.947C91.3995 167.319 92.6834 165.387 93.5594 163.26C94.4353 161.134 94.8861 158.855 94.8861 156.553H80.6803L80.6798 156.553ZM80.6798 156.553V144.93H94.8861V156.553H80.6798ZM80.6803 156.553H77.4562L74.2224 156.553C74.2224 156.917 74.7754 160.044 74.9137 160.38C75.052 160.715 75.2548 161.02 75.5103 161.277C75.7659 161.534 76.0693 161.738 76.4032 161.877C76.7371 162.016 77.0949 162.088 77.4563 162.088C77.8178 162.088 78.1756 162.016 78.5095 161.877C78.8434 161.738 79.1468 161.534 79.4024 161.277C79.6579 161.02 79.8606 160.715 79.9989 160.38C80.1373 160.044 80.6802 156.917 80.6803 156.553Z" fill="white"/>
<path fill-rule="evenodd" clip-rule="evenodd" d="M177.845 19.4646C177.651 19.9347 177.55 24.3129 177.55 24.8217H177.55C177.55 24.8218 177.55 24.8218 177.55 24.8218C177.55 33.6478 182.763 36.8889 190.361 41.6132C192.769 43.1105 195.417 44.7567 198.214 46.777C207.512 53.4927 208.115 68.5169 207.254 75.1896C207.254 78.412 206.619 81.6028 205.386 84.5799C204.153 87.557 202.346 90.2621 200.067 92.5407C197.789 94.8193 195.083 96.6267 192.106 97.8599C189.129 99.093 185.938 99.7277 182.716 99.7277C179.494 99.7277 176.303 99.093 173.326 97.8599C170.349 96.6267 167.643 94.8193 165.365 92.5407C163.086 90.2621 161.279 87.557 160.046 84.5799C158.813 81.6028 158.178 78.412 158.178 75.1896V63.5662H178.842L178.842 75.1896C178.842 75.6984 178.941 80.0766 179.136 80.5467C179.331 81.0168 179.616 81.4439 179.976 81.8037C180.336 82.1634 180.763 82.4488 181.233 82.6435C181.703 82.8383 182.207 82.9385 182.716 82.9385C183.225 82.9385 183.728 82.8383 184.198 82.6436C184.668 82.4488 185.096 82.1634 185.455 81.8037C185.815 81.4439 186.101 81.0168 186.295 80.5467C186.49 80.0766 186.59 75.6984 186.59 75.1896L186.59 75.1896C186.59 74.9695 186.591 74.7457 186.592 74.5184C186.616 68.7421 186.65 60.6654 171.739 52.5887C159.341 45.873 156.671 31.2792 156.887 24.8218C156.887 24.8218 156.887 24.8218 156.887 24.8217H156.886C156.886 21.5993 157.521 18.4085 158.754 15.4314C159.987 12.4543 161.795 9.74921 164.073 7.47063C166.352 5.19205 169.057 3.38458 172.034 2.15143C175.011 0.918268 178.202 0.283569 181.425 0.283569C184.647 0.28357 187.838 0.918269 190.815 2.15143C193.792 3.38459 196.497 5.19206 198.776 7.47064C201.054 9.74922 202.862 12.4543 204.095 15.4314C205.328 18.4085 205.963 21.5993 205.963 24.8217L205.963 31.2792H185.299L185.299 24.8217C185.299 24.3129 185.199 19.9347 185.004 19.4646C184.81 18.9945 184.524 18.5674 184.164 18.2076C183.805 17.8479 183.378 17.5625 182.907 17.3678C182.437 17.1731 181.934 17.0728 181.425 17.0728C180.916 17.0728 180.412 17.1731 179.942 17.3678C179.472 17.5625 179.045 17.8479 178.685 18.2076C178.325 18.5674 178.04 18.9945 177.845 19.4646Z" fill="white"/>
<path fill-rule="evenodd" clip-rule="evenodd" d="M186.406 119.838V119.838H189.173H191.941V119.838L206.701 119.838C206.701 117.536 206.247 115.257 205.367 113.131C204.486 111.004 203.195 109.072 201.567 107.444C199.94 105.817 198.007 104.526 195.881 103.645C193.754 102.764 191.475 102.311 189.173 102.311C186.872 102.311 184.593 102.764 182.466 103.645C180.34 104.526 178.407 105.817 176.78 107.444C175.152 109.072 173.861 111.004 172.98 113.131C172.1 115.257 171.646 117.536 171.646 119.838H171.646C171.646 119.838 171.646 119.838 171.646 119.838C171.492 124.451 173.399 134.875 182.255 139.672C192.905 145.441 192.881 151.21 192.864 155.336C192.864 155.498 192.863 155.658 192.863 155.815L192.863 155.815C192.863 156.179 192.791 159.306 192.652 159.642C192.513 159.977 192.309 160.282 192.052 160.539C191.795 160.796 191.49 161 191.154 161.139C190.818 161.278 190.459 161.35 190.095 161.35C189.732 161.35 189.372 161.278 189.036 161.139C188.7 161 188.395 160.796 188.138 160.539C187.881 160.282 187.677 159.977 187.538 159.642C187.399 159.306 187.328 156.179 187.328 155.815L172.568 155.815C172.568 158.117 173.021 160.396 173.902 162.523C174.783 164.649 176.074 166.581 177.701 168.209C179.329 169.836 181.261 171.127 183.388 172.008C185.514 172.889 187.793 173.342 190.095 173.342C192.397 173.342 194.676 172.889 196.803 172.008C198.929 171.127 200.861 169.836 202.489 168.209C204.116 166.581 205.407 164.649 206.288 162.523C207.169 160.396 207.622 158.117 207.622 155.815C207.623 155.815 207.623 155.815 207.623 155.815C208.238 151.049 207.807 140.317 201.165 135.52C199.167 134.077 197.276 132.901 195.556 131.832C190.129 128.457 186.406 126.142 186.406 119.838C186.406 119.838 186.406 119.838 186.406 119.838H186.406ZM186.406 119.838C186.406 119.474 186.478 116.347 186.617 116.011C186.756 115.676 186.96 115.371 187.217 115.114C187.474 114.857 187.779 114.653 188.114 114.514C188.45 114.375 188.81 114.303 189.173 114.303C189.537 114.303 189.897 114.375 190.233 114.514C190.568 114.653 190.873 114.857 191.13 115.114C191.387 115.371 191.591 115.676 191.73 116.011C191.869 116.347 191.941 119.474 191.941 119.838H189.173L186.406 119.838ZM187.328 147.513H172.568V155.815H187.328V147.513ZM191.941 119.838H206.701V124.45H191.941V119.838Z" fill="white"/>
<path d="M49.6931 110.107L49.6931 122.989L0.683594 122.989L0.683593 110.107C0.683593 105.136 3.97423 101.775 9.01521 101.775L41.3615 101.775C46.3324 101.775 49.6931 105.136 49.6931 110.107ZM7.61494 111.367L7.61494 114.868L42.7617 114.868L42.7617 111.367C42.7617 110.527 42.2016 109.967 41.3615 109.967L9.01521 109.967C8.17504 109.967 7.61494 110.527 7.61494 111.367Z" fill="white"/>
<path d="M49.6931 141.266L49.6931 149.108L0.683594 149.108L0.683593 141.266L21.3376 136.505C23.1579 136.015 25.6784 135.595 27.5688 135.385L27.5688 135.245C25.6784 135.455 23.1579 135.735 21.1976 135.735L0.683593 135.735L0.683593 127.893L49.6931 127.893L49.6931 135.735L29.1091 140.496C27.2187 140.986 24.6982 141.336 22.8079 141.616L22.8779 141.756C24.7683 141.476 27.2887 141.266 29.1791 141.266L49.6931 141.266Z" fill="white"/>
<path d="M49.6931 167.509L49.6931 175L0.683593 168.909L0.683593 157.987L49.6931 151.896L49.6931 159.457L39.1911 160.577L39.1911 166.318L49.6931 167.509ZM32.2597 165.548L32.2597 161.347L16.5067 163.098C14.6163 163.308 12.0958 163.378 10.1354 163.378L10.1354 163.518C12.0958 163.518 14.6163 163.588 16.5067 163.798L32.2597 165.548Z" fill="white"/>
</svg>
