<svg width="215" height="50" viewBox="0 0 215 50" fill="none" xmlns="http://www.w3.org/2000/svg">
<path d="M191.246 0.385254C195.357 0.385254 198.729 0.417367 201.362 0.481593C203.995 0.481593 206.307 0.545819 208.298 0.674274C210.289 0.738499 212.28 0.866951 214.271 1.05963L213.019 10.9826C212.441 10.8541 210.257 10.7578 206.468 10.6935C202.679 10.6293 197.701 10.5972 191.535 10.5972C188.774 10.5972 186.943 11.0468 186.044 11.9459C185.145 12.8451 184.695 14.3544 184.695 16.4739C184.695 19.1714 185.145 21.0339 186.044 22.0615C187.007 23.0892 188.902 23.603 191.728 23.603H213.115L213.404 32.4662C212.377 32.4662 211.028 32.4983 209.358 32.5625C207.688 32.6267 205.472 32.6588 202.711 32.6588C199.949 32.6588 196.384 32.6588 192.017 32.6588C190.219 32.6588 188.838 32.9479 187.874 33.5259C186.975 34.0397 186.365 34.9068 186.044 36.1271L182.865 48.8438H168.318L172.171 34.1039C172.621 32.691 173.359 31.6312 174.387 30.9247C175.479 30.154 176.667 29.6081 177.952 29.287C179.236 28.9659 180.392 28.7411 181.42 28.6126V28.2273C178.722 27.7134 176.603 26.8464 175.061 25.6261C173.52 24.4058 172.428 22.8965 171.786 21.0982C171.144 19.2998 170.822 17.3409 170.822 15.2215C170.822 12.524 171.111 10.244 171.69 8.3814C172.332 6.45462 173.391 4.91319 174.869 3.75712C176.41 2.53683 178.497 1.66978 181.131 1.15597C183.828 0.64216 187.2 0.385254 191.246 0.385254ZM214.271 1.05963V48.8438H200.399V1.05963H214.271Z" fill="#D7FF38"/>
<path d="M158.51 1.25238V11.079H139.242C137.637 11.079 136.449 11.4643 135.678 12.235C134.907 12.9415 134.425 14.0976 134.233 15.7032C133.912 18.3365 133.558 21.0019 133.173 23.6994C132.852 26.3327 132.499 28.8696 132.113 31.3102C131.728 33.6865 131.278 35.7418 130.765 37.4759C130.058 40.8799 128.741 43.5131 126.815 45.3757C124.952 47.174 122.672 48.3622 119.975 48.9402C118.698 48.5549 120.486 48.8439 111.304 48.8439L109.859 38.8246C111.336 38.5035 112.621 38.1824 113.713 37.8612C114.804 37.5401 115.671 37.0584 116.314 36.4162C117.02 35.7739 117.566 34.8426 117.951 33.6223C118.337 32.5305 118.69 31.246 119.011 29.7688C119.332 28.2273 119.621 26.5574 119.878 24.7591C120.135 22.9608 120.36 21.0661 120.553 19.0751C120.745 17.0841 120.938 15.0931 121.131 13.1021C121.516 9.1843 122.704 6.2299 124.695 4.23889C126.75 2.24788 129.801 1.25238 133.847 1.25238H158.51ZM159.763 1.25238V48.8439H145.601V1.25238H159.763Z" fill="#D7FF38"/>
<path d="M80.9623 0C86.9353 0 91.7202 0.83494 95.3168 2.50482C98.9135 4.11047 101.483 6.74374 103.024 10.4046C104.63 14.0655 105.432 18.9788 105.432 25.1445C105.432 31.1818 104.63 36.0308 103.024 39.6917C101.483 43.3526 98.9135 45.9859 95.3168 47.5915C91.7202 49.1972 86.9353 50 80.9623 50C74.9893 50 70.2044 49.1972 66.6078 47.5915C63.0111 45.9859 60.4099 43.3526 58.8043 39.6917C57.1986 36.0308 56.3958 31.1818 56.3958 25.1445C56.3958 18.9788 57.1986 14.0655 58.8043 10.4046C60.4099 6.74374 63.0111 4.11047 66.6078 2.50482C70.2044 0.83494 74.9893 0 80.9623 0ZM80.9623 10.4046C78.5217 10.4046 76.5949 10.8221 75.1819 11.657C73.769 12.492 72.7735 13.9692 72.1954 16.0886C71.6174 18.2081 71.3284 21.2267 71.3284 25.1445C71.3284 28.9981 71.6174 31.9846 72.1954 34.104C72.7735 36.2235 73.769 37.7007 75.1819 38.5356C76.5949 39.3064 78.5217 39.6917 80.9623 39.6917C83.4029 39.6917 85.3297 39.3064 86.7426 38.5356C88.1556 37.7007 89.119 36.2235 89.6328 34.104C90.2108 31.9846 90.4999 28.9981 90.4999 25.1445C90.4999 21.2267 90.2108 18.2081 89.6328 16.0886C89.119 13.9692 88.1556 12.492 86.7426 11.657C85.3297 10.8221 83.4029 10.4046 80.9623 10.4046Z" fill="#D7FF38"/>
<path d="M45.6647 1.25238V48.8439H31.6956V1.25238H45.6647ZM13.8728 1.25238V48.8439H0V1.25238H13.8728ZM32.659 1.25238L32.5626 11.1753L13.2948 48.8439V1.25238H32.659Z" fill="#D7FF38"/>
<path d="M94.9284 6.85632H69.3707V41.5417H94.9284V6.85632Z" fill="#D7FF38"/>
<path d="M73.0218 8.68189L91.2773 41.5417L73.0218 41.5417L73.0218 8.68189Z" fill="#191919"/>
<path d="M116.835 48.8439H146.044V8.68188H135.091L116.835 48.8439Z" fill="#D7FF38"/>
<path d="M146.044 12.3329L127.788 48.8439L146.044 48.8439L146.044 12.3329Z" fill="#191919"/>
<rect x="182.555" y="8.68188" width="25.5577" height="40.162" fill="#D7FF38"/>
<path d="M200.81 30.5883L182.555 48.8438L200.81 48.8438L200.81 30.5883Z" fill="#191919"/>
<path d="M200.81 5.0307L182.555 23.2862L200.81 23.2862L200.81 5.0307Z" fill="#191919"/>
</svg>
